<?xml version="1.0" encoding="utf-8"?>
<!-- Generator: Adobe Illustrator 24.0.1, SVG Export Plug-In . SVG Version: 6.00 Build 0)  -->
<svg width="1600" version="1.1" xmlns="http://www.w3.org/2000/svg" xmlns:xlink="http://www.w3.org/1999/xlink" x="0px" y="0px"
	 viewBox="0 0 1679 631" style="enable-background:new 0 0 1679 631;" xml:space="preserve">
<style type="text/css">
	.st0{fill:none;stroke:#FFFFFF;stroke-width:5;stroke-opacity:5.000000e-02;}
	.st1{fill:none;stroke:#FFFFFF;stroke-width:5;stroke-miterlimit:10;stroke-opacity:5.000000e-02;}
	.st2{fill:none;stroke:#FFFFFF;stroke-width:2;stroke-opacity:5.000000e-02;}
	.st3{fill:none;stroke:#FFFFFF;stroke-width:4;stroke-opacity:5.000000e-02;}
	.st4{fill:none;stroke:#FFFFFF;stroke-opacity:5.000000e-02;}


	 .bubblesHeader {
            animation: 4s bubbles1 ease-in-out infinite alternate;
        }
        .bubblesHeader2 {
            animation: 4s bubbles2 ease-in-out infinite alternate;
        }
        .bubblesHeader3 {
            animation: 4s bubbles3 .1s ease-in-out infinite alternate;
        }
        .bubblesHeader4 {
            animation: 4s bubbles4 .2s ease-in-out infinite alternate;
        }


        @keyframes bubbles1 {
      
            100% {
                /* top: 0px; */
                transform: translate(-100px, -100px)
            }
        }
        @keyframes bubbles2 {
           
            100% {
                transform: translate(-100px, -100px)
            }
        }
        @keyframes bubbles3 {
            100% {
                transform: translate(100px, -100px)
            }
        }
        @keyframes bubbles4 {

            100% {
                transform: translate(-100px, 100px)
            }
        }
</style>


<g class="bubblesHeader">
	<path class="st0" d="M64,165.7c7,1.5,11.6,8.5,10.2,15.6c-1.4,7.1-8.3,11.6-15.3,10.1c-7-1.5-11.6-8.5-10.2-15.6
		C50.1,168.7,57,164.2,64,165.7z"/>
	<path class="st0" d="M86.4,230.6c1.7,0.4,2.8,2,2.4,3.7c-0.3,1.7-2,2.8-3.6,2.4s-2.8-2-2.4-3.7C83.1,231.3,84.8,230.3,86.4,230.6z"
		/>
	<path class="st0" d="M813.8,393c7,1.5,11.6,8.5,10.2,15.6c-1.4,7.1-8.3,11.6-15.3,10.1c-7-1.5-11.6-8.5-10.2-15.6
		C799.9,396,806.8,391.5,813.8,393z"/>
	<path class="st0" d="M494.6,310.8c2.9-3.3,7.9-3.6,11.2-0.6c3.3,3,3.6,8.1,0.8,11.4c-2.9,3.3-7.9,3.6-11.2,0.6
		C492,319.1,491.7,314,494.6,310.8z"/>
	<path class="st1" d="M1619.1,119c-3.7-3.3-9.3-3-12.5,0.7c-3.2,3.7-2.9,9.4,0.8,12.7c3.7,3.3,9.3,3,12.5-0.7
		C1623.1,128,1622.8,122.4,1619.1,119z"/>
	<path class="st2" d="M1675,402.1c-1.1,2.5-4,3.7-6.6,2.5c-2.5-1.2-3.7-4.1-2.6-6.7c1.1-2.5,4-3.7,6.6-2.5
		C1674.9,396.6,1676.1,399.6,1675,402.1z"/>
	<path class="st0" d="M1252.2,228.8c0.8-1.8,2.8-2.6,4.6-1.7c1.8,0.8,2.6,2.9,1.8,4.7c-0.8,1.8-2.8,2.6-4.6,1.7
		S1251.4,230.6,1252.2,228.8z"/>
	<path class="st0" d="M1240.3,167.9c3.1-7,11.3-10.2,18.3-7c7,3.2,10.2,11.6,7.2,18.6c-3.1,7-11.3,10.2-18.3,7
		C1240.4,183.3,1237.2,174.9,1240.3,167.9z"/>
	<path class="st4" d="M1479.4,596.8c8.1,1.7,13.4,9.8,11.8,18c-1.6,8.2-9.5,13.4-17.6,11.7c-8.1-1.7-13.4-9.8-11.8-18
		C1463.4,600.2,1471.3,595,1479.4,596.8z"/>
	<path class="st0" d="M8.9,381.4c-0.8,0.9-2.3,1.1-3.3,0.2c-1-0.9-1.1-2.4-0.2-3.4c0.8-0.9,2.3-1.1,3.3-0.2
		C9.6,379,9.7,380.5,8.9,381.4z"/>
</g>
<g class="bubblesHeader4">
	<path class="st1" d="M689.1,76.4c1.7-8.7-3.9-17.2-12.5-19.1C668,55.5,659.7,61,658,69.7c-1.7,8.7,3.9,17.2,12.5,19.1
		C679,90.6,687.4,85.1,689.1,76.4z"/>
	<path class="st0" d="M688,130c1.7,0.4,2.8,2,2.4,3.7c-0.3,1.7-2,2.8-3.6,2.4s-2.8-2-2.4-3.7C684.7,130.7,686.3,129.6,688,130z"/>
	<path class="st1" d="M521.4,174.3c-4.4-4-11.2-3.7-15.1,0.8c-3.9,4.5-3.5,11.3,1,15.3c4.4,4,11.2,3.7,15.1-0.8
		C526.3,185.1,525.9,178.3,521.4,174.3z"/>
	<path class="st1" d="M863.6,484c1.7-8.7-3.9-17.2-12.5-19.1c-8.6-1.8-16.9,3.7-18.7,12.4c-1.7,8.7,3.9,17.2,12.5,19.1
		C853.5,498.2,861.9,492.6,863.6,484z"/>
	<path class="st2" d="M440.4,327c4.6,1,7.6,5.5,6.6,10.2c-0.9,4.6-5.4,7.6-9.9,6.6c-4.6-1-7.6-5.5-6.6-10.2
		C431.3,328.9,435.8,326,440.4,327z"/>
	<path class="st2" d="M1631.3,220.8c2.5,0.5,4.1,3,3.6,5.5s-2.9,4.1-5.4,3.6c-2.5-0.5-4.1-3-3.6-5.5
		C1626.3,221.8,1628.8,220.2,1631.3,220.8z"/>
	<path class="st0" d="M1579.6,251.5c0.4-0.5,1.3-0.6,1.8-0.1c0.6,0.5,0.6,1.3,0.1,1.8c-0.4,0.5-1.3,0.6-1.8,0.1
		C1579.2,252.9,1579.2,252,1579.6,251.5z"/>
	<path class="st2" d="M1660.5,535.7c-3.3-0.7-5.5-4-4.8-7.4c0.7-3.4,3.9-5.5,7.3-4.8c3.3,0.7,5.5,4,4.8,7.4
		C1667.1,534.3,1663.8,536.4,1660.5,535.7z"/>
	<path class="st0" d="M1360.6,435c5.6,1.2,9.2,6.7,8.1,12.4c-1.1,5.7-6.6,9.3-12.1,8.1c-5.6-1.2-9.2-6.7-8.1-12.4
		C1349.6,437.4,1355,433.8,1360.6,435z"/>
	<path class="st0" d="M1599.9,465.8c7,1.5,11.6,8.5,10.2,15.6c-1.4,7.1-8.3,11.6-15.3,10.1c-7-1.5-11.6-8.5-10.2-15.6
		C1586.1,468.8,1592.9,464.3,1599.9,465.8z"/>
	<path class="st0" d="M118.4,424.7c-0.8,1.8-2.8,2.6-4.6,1.7c-1.8-0.8-2.6-2.9-1.8-4.7c0.8-1.8,2.8-2.6,4.6-1.7
		S119.2,422.9,118.4,424.7z"/>
</g>

<g class="bubblesHeader3">
	<path class="st1" d="M43.6,4.8c-5.1-2.6-11.2-0.6-13.8,4.5c-2.5,5.1-0.5,11.4,4.6,14c5.1,2.6,11.2,0.6,13.8-4.5
		C50.8,13.7,48.7,7.4,43.6,4.8z"/>
	<path class="st0" d="M723.8,81.9c2.5,0.5,4.2,3,3.7,5.6c-0.5,2.6-3,4.2-5.5,3.6c-2.5-0.5-4.2-3-3.7-5.6
		C718.8,82.9,721.3,81.3,723.8,81.9z"/>
	<path class="st0" d="M756.4,400c1.7,0.4,2.8,2,2.4,3.7c-0.3,1.7-2,2.8-3.6,2.4c-1.7-0.4-2.8-2-2.4-3.7
		C753.1,400.7,754.8,399.6,756.4,400z"/>
	<path class="st1" d="M571.8,488.3c1.6-7.7-3.6-15.2-11.7-16.9c-8.1-1.6-15.9,3.3-17.5,10.9c-1.6,7.7,3.6,15.2,11.7,16.9
		C562.4,500.8,570.2,496,571.8,488.3z"/>
	<path class="st0" d="M622.8,385.4c0.4-0.5,1.3-0.6,1.8-0.1c0.6,0.5,0.6,1.3,0.1,1.8c-0.4,0.5-1.3,0.6-1.8,0.1
		C622.3,386.7,622.3,385.9,622.8,385.4z"/>
	<path class="st1" d="M1573.4,223.3c-4.4-4-11.2-3.7-15.1,0.8c-3.9,4.5-3.5,11.3,1,15.3c4.5,4,11.2,3.7,15.1-0.8
		C1578.3,234.1,1577.9,227.3,1573.4,223.3z"/>
	<path class="st3" d="M1633.2,461.1c-1.9-0.4-3.2-2.3-2.8-4.3c0.4-2,2.3-3.2,4.2-2.8c1.9,0.4,3.2,2.3,2.8,4.3
		C1637,460.3,1635.1,461.5,1633.2,461.1z"/>
	<path class="st0" d="M1304,350.7c7,1.5,11.6,8.5,10.2,15.6c-1.4,7.1-8.3,11.6-15.3,10.1c-7-1.5-11.6-8.5-10.2-15.6
		C1290.1,353.7,1297,349.2,1304,350.7z"/>
	<path class="st1" d="M64.1,353.4c4.4,4,11.2,3.7,15.1-0.8c3.9-4.5,3.5-11.3-1-15.3c-4.4-4-11.2-3.7-15.1,0.8
		C59.2,342.5,59.7,349.4,64.1,353.4z"/>
	<path class="st0" d="M78.1,483.9c-1.7-0.4-2.8-2-2.4-3.7c0.3-1.7,2-2.8,3.6-2.4s2.8,2,2.4,3.7C81.4,483.2,79.7,484.2,78.1,483.9z"
		/>
</g>

<g class="bubblesHeader2">
	<path class="st0" d="M239.8,182c1.7,0.4,2.8,2,2.4,3.7c-0.3,1.7-2,2.8-3.6,2.4c-1.7-0.4-2.8-2-2.4-3.7
		C236.5,182.7,238.1,181.6,239.8,182z"/>
	<path class="st1" d="M551,86c1-5-2.3-9.9-7.4-11c-5.1-1.1-10,2.1-11,7.1s2.3,9.9,7.4,11C545.2,94.1,550.1,91,551,86z"/>
	<path class="st1" d="M983.6,316.4c-4.4-4-11.2-3.7-15.1,0.8c-3.9,4.5-3.5,11.3,1,15.3c4.4,4,11.2,3.7,15.1-0.8
		C988.5,327.2,988,320.4,983.6,316.4z"/>
	<path class="st0" d="M998.8,298.3c0.8-0.9,2.3-1.1,3.3-0.2c1,0.9,1.1,2.4,0.2,3.4c-0.8,0.9-2.3,1.1-3.3,0.2
		C998.1,300.8,998,299.3,998.8,298.3z"/>
	<path class="st0" d="M611.7,289.1c0.8-1.8,2.8-2.6,4.6-1.7c1.8,0.8,2.6,2.9,1.8,4.7c-0.8,1.8-2.8,2.6-4.6,1.7
		C611.7,293,610.9,290.9,611.7,289.1z"/>
	<path class="st2" d="M1563.2,330.3c1.4-1.6,3.8-1.7,5.4-0.3c1.6,1.4,1.8,3.9,0.4,5.5c-1.4,1.6-3.8,1.7-5.4,0.3
		C1561.9,334.3,1561.8,331.9,1563.2,330.3z"/>
	<path class="st0" d="M1298.8,210.9c2.2-5,8-7.2,13-4.9c5,2.3,7.3,8.2,5.1,13.2c-2.2,5-8,7.2-13,4.9
		C1298.9,221.8,1296.6,215.9,1298.8,210.9z"/>
	<path class="st0" d="M1275.2,518.8c2.9-3.3,7.9-3.6,11.2-0.6c3.3,3,3.6,8.1,0.8,11.4c-2.9,3.3-7.9,3.6-11.3,0.6
		C1272.6,527.2,1272.3,522.1,1275.2,518.8z"/>
	<path class="st1" d="M38.6,444.3c3.7,3.3,9.3,3,12.5-0.7c3.2-3.7,2.9-9.4-0.8-12.7c-3.7-3.3-9.3-3-12.5,0.7
		C34.6,435.3,34.9,441,38.6,444.3z"/>
</g>

</svg>
