<svg xmlns="http://www.w3.org/2000/svg" fill="none" stroke="#fff" stroke-opacity=".1" viewBox="-500 0 2550 986">
<style>.st0,.st1{stroke-width:5}.st1{stroke-miterlimit:10}.st2{stroke-width:2}.bubblesHeader { animation: 4s bubbles1 ease-in-out infinite alternate; } .bubblesHeader2 { animation: 4s bubbles2 ease-in-out infinite alternate; } .bubblesHeader3 { animation: 4s bubbles3 .1s ease-in-out infinite alternate; } .bubblesHeader4 { animation: 4s bubbles4 .2s ease-in-out infinite alternate; } @keyframes bubbles1 { 100% { /* top: 0px; */ transform: translate(-100px, -100px) } } @keyframes bubbles2 { 100% { transform: translate(-100px, -100px) } } @keyframes bubbles3 { 100% { transform: translate(100px, -100px) } } @keyframes bubbles4 { 100% { transform: translate(-100px, 100px) } }</style>
<g class="bubblesHeader"><path d="M64 165.7c7 1.5 11.6 8.5 10.2 15.6-1.4 7.1-8.3 11.6-15.3 10.1s-11.6-8.5-10.2-15.6c1.4-7.1 8.3-11.6 15.3-10.1zM86.4 230.6c1.7.4 2.8 2 2.4 3.7-.3 1.7-2 2.8-3.6 2.4s-2.8-2-2.4-3.7c.3-1.7 2-2.7 3.6-2.4zM813.8 393c7 1.5 11.6 8.5 10.2 15.6-1.4 7.1-8.3 11.6-15.3 10.1s-11.6-8.5-10.2-15.6c1.4-7.1 8.3-11.6 15.3-10.1zM494.6 310.8c2.9-3.3 7.9-3.6 11.2-.6 3.3 3 3.6 8.1.8 11.4-2.9 3.3-7.9 3.6-11.2.6-3.4-3.1-3.7-8.2-.8-11.4z" class="st0"/><path d="M1619.1 119c-3.7-3.3-9.3-3-12.5.7-3.2 3.7-2.9 9.4.8 12.7 3.7 3.3 9.3 3 12.5-.7 3.2-3.7 2.9-9.3-.8-12.7z" class="st1"/><path d="M1675 402.1c-1.1 2.5-4 3.7-6.6 2.5-2.5-1.2-3.7-4.1-2.6-6.7 1.1-2.5 4-3.7 6.6-2.5 2.5 1.2 3.7 4.2 2.6 6.7z" class="st2"/><path d="M1252.2 228.8c.8-1.8 2.8-2.6 4.6-1.7 1.8.8 2.6 2.9 1.8 4.7-.8 1.8-2.8 2.6-4.6 1.7s-2.6-2.9-1.8-4.7zM1240.3 167.9c3.1-7 11.3-10.2 18.3-7 7 3.2 10.2 11.6 7.2 18.6-3.1 7-11.3 10.2-18.3 7-7.1-3.2-10.3-11.6-7.2-18.6z" class="st0"/><path d="M1479.4 596.8c8.1 1.7 13.4 9.8 11.8 18-1.6 8.2-9.5 13.4-17.6 11.7-8.1-1.7-13.4-9.8-11.8-18 1.6-8.3 9.5-13.5 17.6-11.7z" class="st4"/><path d="M8.9 381.4c-.8.9-2.3 1.1-3.3.2-1-.9-1.1-2.4-.2-3.4.8-.9 2.3-1.1 3.3-.2.9 1 1 2.5.2 3.4z" class="st0"/></g><g class="bubblesHeader4"><path d="M689.1 76.4c1.7-8.7-3.9-17.2-12.5-19.1-8.6-1.8-16.9 3.7-18.6 12.4-1.7 8.7 3.9 17.2 12.5 19.1 8.5 1.8 16.9-3.7 18.6-12.4z" class="st1"/><path d="M688 130c1.7.4 2.8 2 2.4 3.7-.3 1.7-2 2.8-3.6 2.4s-2.8-2-2.4-3.7c.3-1.7 1.9-2.8 3.6-2.4z" class="st0"/><path d="M521.4 174.3c-4.4-4-11.2-3.7-15.1.8-3.9 4.5-3.5 11.3 1 15.3 4.4 4 11.2 3.7 15.1-.8 3.9-4.5 3.5-11.3-1-15.3zM863.6 484c1.7-8.7-3.9-17.2-12.5-19.1-8.6-1.8-16.9 3.7-18.7 12.4-1.7 8.7 3.9 17.2 12.5 19.1 8.6 1.8 17-3.8 18.7-12.4z" class="st1"/><path d="M440.4 327c4.6 1 7.6 5.5 6.6 10.2-.9 4.6-5.4 7.6-9.9 6.6-4.6-1-7.6-5.5-6.6-10.2.8-4.7 5.3-7.6 9.9-6.6zM1631.3 220.8c2.5.5 4.1 3 3.6 5.5s-2.9 4.1-5.4 3.6c-2.5-.5-4.1-3-3.6-5.5.4-2.6 2.9-4.2 5.4-3.6z" class="st2"/><path d="M1579.6 251.5c.4-.5 1.3-.6 1.8-.1.6.5.6 1.3.1 1.8-.4.5-1.3.6-1.8.1-.5-.4-.5-1.3-.1-1.8z" class="st0"/><path d="M1660.5 535.7c-3.3-.7-5.5-4-4.8-7.4.7-3.4 3.9-5.5 7.3-4.8 3.3.7 5.5 4 4.8 7.4-.7 3.4-4 5.5-7.3 4.8z" class="st2"/><path d="M1360.6 435c5.6 1.2 9.2 6.7 8.1 12.4-1.1 5.7-6.6 9.3-12.1 8.1-5.6-1.2-9.2-6.7-8.1-12.4 1.1-5.7 6.5-9.3 12.1-8.1zM1599.9 465.8c7 1.5 11.6 8.5 10.2 15.6-1.4 7.1-8.3 11.6-15.3 10.1s-11.6-8.5-10.2-15.6c1.5-7.1 8.3-11.6 15.3-10.1zM118.4 424.7c-.8 1.8-2.8 2.6-4.6 1.7-1.8-.8-2.6-2.9-1.8-4.7.8-1.8 2.8-2.6 4.6-1.7s2.6 2.9 1.8 4.7z" class="st0"/></g><g class="bubblesHeader3"><path d="M43.6 4.8c-5.1-2.6-11.2-.6-13.8 4.5-2.5 5.1-.5 11.4 4.6 14 5.1 2.6 11.2.6 13.8-4.5 2.6-5.1.5-11.4-4.6-14z" class="st1"/><path d="M723.8 81.9c2.5.5 4.2 3 3.7 5.6-.5 2.6-3 4.2-5.5 3.6-2.5-.5-4.2-3-3.7-5.6.5-2.6 3-4.2 5.5-3.6zM756.4 400c1.7.4 2.8 2 2.4 3.7-.3 1.7-2 2.8-3.6 2.4-1.7-.4-2.8-2-2.4-3.7.3-1.7 2-2.8 3.6-2.4z" class="st0"/><path d="M571.8 488.3c1.6-7.7-3.6-15.2-11.7-16.9-8.1-1.6-15.9 3.3-17.5 10.9-1.6 7.7 3.6 15.2 11.7 16.9 8.1 1.6 15.9-3.2 17.5-10.9z" class="st1"/><path d="M622.8 385.4c.4-.5 1.3-.6 1.8-.1.6.5.6 1.3.1 1.8-.4.5-1.3.6-1.8.1-.6-.5-.6-1.3-.1-1.8z" class="st0"/><path d="M1573.4 223.3c-4.4-4-11.2-3.7-15.1.8-3.9 4.5-3.5 11.3 1 15.3s11.2 3.7 15.1-.8c3.9-4.5 3.5-11.3-1-15.3z" class="st1"/><path stroke-width="4" d="M1633.2 461.1c-1.9-.4-3.2-2.3-2.8-4.3.4-2 2.3-3.2 4.2-2.8 1.9.4 3.2 2.3 2.8 4.3-.4 2-2.3 3.2-4.2 2.8z"/><path d="M1304 350.7c7 1.5 11.6 8.5 10.2 15.6-1.4 7.1-8.3 11.6-15.3 10.1s-11.6-8.5-10.2-15.6c1.4-7.1 8.3-11.6 15.3-10.1z" class="st0"/><path d="M64.1 353.4c4.4 4 11.2 3.7 15.1-.8 3.9-4.5 3.5-11.3-1-15.3-4.4-4-11.2-3.7-15.1.8-3.9 4.4-3.4 11.3 1 15.3z" class="st1"/><path d="M78.1 483.9c-1.7-.4-2.8-2-2.4-3.7.3-1.7 2-2.8 3.6-2.4s2.8 2 2.4 3.7c-.3 1.7-2 2.7-3.6 2.4z" class="st0"/></g><g class="bubblesHeader2"><path d="M239.8 182c1.7.4 2.8 2 2.4 3.7-.3 1.7-2 2.8-3.6 2.4-1.7-.4-2.8-2-2.4-3.7.3-1.7 1.9-2.8 3.6-2.4z" class="st0"/><path d="M551 86c1-5-2.3-9.9-7.4-11-5.1-1.1-10 2.1-11 7.1s2.3 9.9 7.4 11c5.2 1 10.1-2.1 11-7.1zM983.6 316.4c-4.4-4-11.2-3.7-15.1.8-3.9 4.5-3.5 11.3 1 15.3 4.4 4 11.2 3.7 15.1-.8 3.9-4.5 3.4-11.3-1-15.3z" class="st1"/><path d="M998.8 298.3c.8-.9 2.3-1.1 3.3-.2 1 .9 1.1 2.4.2 3.4-.8.9-2.3 1.1-3.3.2-.9-.9-1-2.4-.2-3.4zM611.7 289.1c.8-1.8 2.8-2.6 4.6-1.7 1.8.8 2.6 2.9 1.8 4.7-.8 1.8-2.8 2.6-4.6 1.7-1.8-.8-2.6-2.9-1.8-4.7z" class="st0"/><path d="M1563.2 330.3c1.4-1.6 3.8-1.7 5.4-.3 1.6 1.4 1.8 3.9.4 5.5s-3.8 1.7-5.4.3c-1.7-1.5-1.8-3.9-.4-5.5z" class="st2"/><path d="M1298.8 210.9c2.2-5 8-7.2 13-4.9s7.3 8.2 5.1 13.2-8 7.2-13 4.9-7.3-8.2-5.1-13.2zM1275.2 518.8c2.9-3.3 7.9-3.6 11.2-.6 3.3 3 3.6 8.1.8 11.4-2.9 3.3-7.9 3.6-11.3.6-3.3-3-3.6-8.1-.7-11.4z" class="st0"/><path d="M38.6 444.3c3.7 3.3 9.3 3 12.5-.7 3.2-3.7 2.9-9.4-.8-12.7-3.7-3.3-9.3-3-12.5.7-3.2 3.7-2.9 9.4.8 12.7z" class="st1"/></g></svg>