<svg width="70" height="40" viewBox="0 0 70 40" fill="none" xmlns="http://www.w3.org/2000/svg">
<path d="M1.39311 19.999C1.45003 19.8959 1.51749 19.7759 1.59567 19.6405C1.89874 19.1153 2.36237 18.358 2.99641 17.4457C4.26527 15.6201 6.21171 13.1811 8.91323 10.7423C14.3077 5.8723 22.7114 1 34.7952 1C46.9623 1 55.4071 5.87384 60.821 10.7435C63.5324 13.1823 65.4836 15.6211 66.7548 17.4465C67.39 18.3586 67.8542 19.1158 68.1575 19.6409C68.2359 19.7766 68.3035 19.8967 68.3605 20C68.3035 20.1032 68.2359 20.2234 68.1575 20.3591C67.8542 20.8842 67.39 21.6414 66.7548 22.5535C65.4836 24.3789 63.5324 26.8177 60.821 29.2565C55.4074 34.1259 46.9633 38.9994 34.7974 39C22.7121 38.959 14.3072 34.0859 8.91246 29.2258C6.21075 26.7918 4.26428 24.3604 2.99547 22.5412C2.36146 21.6322 1.89786 20.8777 1.59483 20.3547C1.51703 20.2204 1.44985 20.1014 1.39311 19.999Z" stroke="white" stroke-width="2"/>
<path d="M34.8765 1.76929C44.9632 1.76929 53.1073 9.89593 53.1073 20.0001C53.1073 30.1042 44.9632 38.2308 34.8765 38.2308C24.7899 38.2308 16.6458 30.1042 16.6458 20.0001C16.6458 9.89593 24.7899 1.76929 34.8765 1.76929Z" stroke="white" stroke-width="2"/>
<path d="M34.1074 0.769287H36.4151V39.2308H34.1074V0.769287Z" fill="white"/>
<path d="M34.8766 25.3847C37.8504 25.3847 40.2612 22.9739 40.2612 20.0001C40.2612 17.0263 37.8504 14.6155 34.8766 14.6155C31.9027 14.6155 29.4919 17.0263 29.4919 20.0001C29.4919 22.9739 31.9027 25.3847 34.8766 25.3847Z" fill="white"/>
</svg>
