<svg width="193" height="40" viewBox="0 0 193 40" fill="none" xmlns="http://www.w3.org/2000/svg">
<path d="M79.2737 9.65817H74.4874V2.56416H68.0771V9.65817H64.231V14.0171H68.1626V26.1539C68.1626 31.8804 69.872 33.3334 75.4275 33.3334C76.8805 33.3334 77.5643 33.2479 79.3591 33.1624V28.2906C78.6754 28.3761 78.0771 28.3761 77.3933 28.3761C74.6583 28.3761 74.5728 27.3505 74.5728 25.0428V14.0171H79.3591L79.2737 9.65817ZM93.0344 9.23082C92.607 9.14535 92.0942 9.05988 91.6668 9.05988C88.419 8.97441 85.342 10.9402 84.06 13.9317V9.65817H77.9062V32.9915H84.4019V22.3077C84.4019 18.0342 86.1113 14.8718 90.5557 14.8718C91.4104 14.8718 92.2651 14.9573 93.0344 15.1283V9.23082ZM112.778 32.9915C111.923 31.0257 111.923 28.8035 111.923 26.6667V16.5812C111.923 10.0855 106.453 8.97441 101.667 8.97441C94.9147 8.97441 91.154 11.624 90.8121 16.8377H96.8805C97.3079 14.1881 98.5899 13.2479 101.496 13.2479C104.402 13.2479 105.769 14.2736 105.769 16.4103C105.769 18.2906 104.231 18.6325 100.043 19.2308C95.4275 19.8291 89.7865 20.5129 89.7865 26.6667C89.7865 31.0257 92.9489 33.7607 98.1626 33.7607C100.983 33.8462 103.718 32.7351 105.769 30.8547C105.769 31.624 105.94 32.3932 106.197 33.077L112.778 32.9915ZM105.769 21.624V24.2735C105.769 27.6069 103.376 29.4872 100.043 29.4872C97.8207 29.4872 96.4532 28.2906 96.4532 26.3248C96.4532 23.5043 98.9318 23.1624 101.154 22.8206C102.863 22.6496 104.231 22.5641 105.769 21.624ZM134.915 24.0171H128.675C128.163 27.0941 126.453 28.718 123.633 28.718C120.214 28.718 118.163 26.0684 118.163 21.3676C118.163 16.5812 120.214 13.7607 123.718 13.7607C126.197 13.7607 127.906 15.2137 128.333 17.7778H134.658C134.145 12.3077 129.957 8.97441 123.633 8.97441C116.368 8.97441 111.581 13.9317 111.581 21.5385C111.581 28.8035 116.282 33.5898 123.547 33.5898C129.872 33.5898 134.06 30.0855 134.915 24.0171ZM156.88 9.65817H149.274L140.983 18.0342V0.769287H134.658V32.9915H140.983V25.0428L143.633 22.5641L150.128 32.906H157.992L148.077 18.2052L156.88 9.65817ZM177.735 25.812H171.581C170.641 28.2052 169.188 29.2308 166.795 29.2308C163.376 29.2308 161.41 27.0941 161.325 22.9915H178.162V22.3932C178.162 14.1881 173.633 9.05988 166.539 9.05988C159.701 9.05988 154.744 14.2736 154.744 21.5385C154.744 28.8889 159.53 33.7607 166.795 33.7607C172.009 33.6752 176.282 30.8547 177.735 25.812ZM171.496 18.8889H161.239C161.581 15.6411 163.633 13.6753 166.453 13.6753C169.701 13.6753 171.239 16.0684 171.496 18.8889ZM192.436 9.23082C192.009 9.14535 191.496 9.05988 191.068 9.05988C187.821 8.97441 184.744 10.9402 183.462 13.9317V9.65817H177.308V32.9915H183.804V22.3077C183.804 18.0342 185.513 14.8718 189.957 14.8718C190.812 14.8718 191.667 14.9573 192.436 15.1283V9.23082Z" fill="white"/>
<path d="M27.4789 39.2309H22.0942C21.5814 39.2309 21.2395 38.889 21.2395 38.3762V31.795C21.2395 31.5386 21.325 31.3677 21.496 31.1967C21.6669 31.0258 21.9233 30.9403 22.0942 30.9403H22.5216C22.9489 30.9403 22.9489 30.9403 23.9746 30.9403C25.9404 30.9403 26.2823 30.5984 26.2823 30.0001C26.2823 29.7437 26.1968 29.5728 26.1113 29.3164L25.2566 26.9232C23.2054 31.0258 18.3336 32.9061 13.9746 32.9061C6.19682 32.9061 0.983154 28.1198 0.983154 20.9403C0.983154 13.6754 6.36776 8.46169 13.7182 8.46169C15.5985 8.37622 17.4789 8.80357 19.1883 9.48733C19.1883 9.40186 19.2737 9.40186 19.2737 9.31639C19.4447 9.05998 19.7011 8.97451 19.9575 8.97451H28.6754C29.0173 8.97451 29.3592 9.23092 29.5301 9.5728L31.9233 18.1198C32.0088 18.4617 32.0942 18.7181 32.1797 19.06C32.2652 18.6326 32.3507 18.2907 32.5216 17.8634L34.9147 9.5728C35.0002 9.23092 35.3421 8.97451 35.7695 8.97451H44.231C44.4874 8.97451 44.7438 9.14545 44.9147 9.31639C45.0002 9.40186 45.0002 9.48733 45.0002 9.5728C46.7951 8.80357 48.6754 8.37622 50.6412 8.37622C58.3335 8.37622 63.3763 13.5899 63.3763 21.7095V22.3078C63.3763 22.8207 63.0344 23.1625 62.5216 23.1625H47.6498C47.9062 24.5301 48.7609 25.7266 50.8976 25.7266C52.0088 25.8121 53.1199 25.2993 53.6327 24.3591C53.8036 24.1027 54.06 23.9318 54.4019 23.9318H62.0942C62.3506 23.9318 62.607 24.0172 62.778 24.2736C62.9489 24.4446 63.0344 24.7865 62.9489 25.0429C61.4959 30.342 55.8549 32.7352 50.9831 32.7352C45.513 32.7352 41.2395 30.342 39.1883 26.3249L37.137 32.0514C35.2566 37.436 32.778 39.2309 27.4789 39.2309ZM22.9489 37.5215H27.4789C32.0942 37.5215 33.8036 36.2394 35.513 31.6241L38.3336 23.6754C38.419 23.3335 38.7609 23.0771 39.1883 23.0771C39.5301 23.0771 39.872 23.3335 39.9575 23.7608C41.1541 28.3762 45.3421 31.1967 50.8976 31.1967C54.7438 31.1967 59.1882 29.4873 60.8122 25.8121H54.8293C53.8891 27.0087 52.4361 27.7779 50.8122 27.607C47.9062 27.607 45.9404 25.7266 45.8549 22.4788C45.8549 22.2224 45.9404 22.0514 46.1113 21.8805C46.2823 21.7095 46.5387 21.6241 46.7096 21.6241H61.6669C61.5814 14.5301 57.3934 10.1711 50.6412 10.1711C48.2481 10.1711 46.0259 10.7694 44.1455 12.0514C43.8036 12.2224 43.4618 12.2224 43.1199 11.966C42.8635 11.795 42.6925 11.3677 42.8635 11.0258L42.9489 10.6839H36.3677L34.1455 18.2907C33.8036 19.5728 33.5472 20.7694 33.0344 23.5044C32.9489 23.9318 32.6071 24.1882 32.1797 24.1882C31.7524 24.1882 31.4105 23.8463 31.325 23.4189C31.0686 21.795 30.7267 20.1711 30.2994 18.5472L28.0772 10.6839H21.1541V10.7694C21.2395 11.1113 21.1541 11.4531 20.8977 11.7096C20.6413 11.966 20.2139 11.966 19.872 11.795C17.9917 10.6839 15.8549 10.0856 13.6327 10.0856C7.22247 10.1711 2.69255 14.6155 2.69255 20.8548C2.69255 27.9489 8.41905 31.1112 13.9746 31.1112C17.8207 31.1112 22.2652 29.4018 23.8891 25.7266H17.8207C16.8806 26.9232 15.4276 27.6924 13.8037 27.5215C10.8977 27.5215 8.93187 25.6412 8.8464 22.3933C8.8464 22.1369 8.93187 21.966 9.10281 21.795C9.27375 21.6241 9.53016 21.5386 9.7011 21.5386H24.4874C24.8293 21.5386 25.1712 21.795 25.2566 22.1369L27.6498 28.7181C27.8207 29.06 27.9062 29.5728 27.9917 30.0001C27.9917 32.6497 25.0857 32.6497 23.9746 32.6497C23.3763 32.6497 23.1199 32.6497 22.9489 32.6497V37.5215ZM10.7267 23.248C10.9831 24.6155 11.8378 25.8121 13.9746 25.8121C15.0857 25.8976 16.1968 25.3848 16.7096 24.4446C16.8806 24.1882 17.137 24.0172 17.4789 24.0172H24.3165L24.0601 23.248H10.7267ZM54.4874 19.1454H46.7096C46.4532 19.1454 46.1968 19.06 46.0259 18.8036C45.8549 18.5472 45.7694 18.3762 45.8549 18.1198C46.4532 14.5301 48.7609 13.7608 50.6412 13.7608C53.2908 13.7608 55.0002 15.3848 55.2566 18.2053C55.2566 18.4617 55.1711 18.7181 55.0002 18.889C54.9147 19.06 54.7438 19.1454 54.4874 19.1454ZM47.8207 17.436H53.4617C53.1199 16.154 52.1797 15.4702 50.7267 15.4702C49.1882 15.4702 48.2481 16.0685 47.8207 17.436ZM17.5643 19.1454H9.78657C9.53016 19.1454 9.27375 19.06 9.10281 18.8036C8.93187 18.5472 8.8464 18.3762 8.93187 18.1198C9.53016 14.5301 11.9233 13.7608 13.7182 13.7608C16.3678 13.7608 18.0772 15.3848 18.3336 18.2053C18.3336 18.4617 18.2481 18.7181 18.0772 18.889C17.9917 19.06 17.8207 19.1454 17.5643 19.1454ZM10.8977 17.436H16.5387C16.1968 16.154 15.2566 15.4702 13.8037 15.4702C12.2652 15.4702 11.325 16.0685 10.8977 17.436Z" fill="white"/>
</svg>
