<svg width="183" height="63" viewBox="0 0 183 63" fill="none" xmlns="http://www.w3.org/2000/svg">
<rect x="1" y="1.37354" width="181" height="61" rx="6.5" fill="black" stroke="#A6A6A6"/>
<path d="M39.1253 31.7173C39.1253 27.3673 42.5868 25.2673 42.8878 25.2673C40.9313 22.2673 37.7708 21.9673 36.5667 21.9673C34.0082 21.6673 31.4497 23.4673 30.0952 23.4673C28.7407 23.4673 26.6336 21.9673 24.3761 21.9673C21.5166 21.9673 18.8075 23.6173 17.3025 26.1673C14.2925 31.4173 16.55 39.0673 19.4095 43.2673C20.9146 45.3673 22.5701 47.6173 24.8276 47.6173C26.9346 47.4673 27.8376 46.2673 30.3962 46.2673C32.9547 46.2673 33.7072 47.6173 35.9647 47.6173C38.2223 47.6173 39.7273 45.5173 41.2323 43.4173C42.8878 41.0173 43.6403 38.7673 43.6403 38.6173C43.6403 38.6173 39.1253 36.8173 39.1253 31.7173Z" fill="white"/>
<path d="M34.9113 19.1173C36.1153 17.6173 36.8679 15.6673 36.7174 13.7173C35.0618 13.7173 32.9548 14.9173 31.7508 16.2673C30.6973 17.4673 29.6438 19.5673 29.9448 21.5173C31.7508 21.6673 33.5568 20.4673 34.9113 19.1173Z" fill="white"/>
<path d="M65.162 42.5173H58.0884L56.4329 47.6173H53.4229L60.1954 29.0173H63.2055L69.978 47.6173H66.968L65.162 42.5173ZM58.8409 40.2673H64.56L61.7004 32.0173H61.5499L58.8409 40.2673Z" fill="white"/>
<path d="M84.5768 40.8668C84.5768 45.0668 82.3193 47.7668 78.8578 47.7668C76.9012 47.7668 75.3962 46.8668 74.6437 45.3668V52.1168H71.7842V34.1168H74.4932V36.3668C75.2457 34.8668 76.9012 33.9668 78.8578 33.9668C82.1688 33.8168 84.5768 36.6668 84.5768 40.8668ZM81.5668 40.8668C81.5668 38.1668 80.2123 36.3668 77.9547 36.3668C75.8477 36.3668 74.3427 38.1668 74.3427 40.8668C74.3427 43.5668 75.8477 45.3668 77.9547 45.3668C80.2123 45.3668 81.5668 43.5668 81.5668 40.8668Z" fill="white"/>
<path d="M99.4765 40.8668C99.4765 45.0668 97.219 47.7668 93.7574 47.7668C91.8009 47.7668 90.2959 46.8668 89.5434 45.3668V52.1168H86.6838V34.1168H89.3929V36.3668C90.1454 34.8668 91.8009 33.9668 93.7574 33.9668C97.219 33.8168 99.4765 36.6668 99.4765 40.8668ZM96.617 40.8668C96.617 38.1668 95.2624 36.3668 93.0049 36.3668C90.8979 36.3668 89.3929 38.1668 89.3929 40.8668C89.3929 43.5668 90.8979 45.3668 93.0049 45.3668C95.2624 45.3668 96.617 43.5668 96.617 40.8668Z" fill="white"/>
<path d="M109.41 42.367C109.56 44.167 111.366 45.367 113.925 45.367C116.333 45.367 117.988 44.167 117.988 42.517C117.988 41.017 116.935 40.267 114.527 39.667L112.119 39.067C108.657 38.167 107.152 36.667 107.152 34.117C107.152 30.967 110.012 28.717 113.925 28.717C117.838 28.717 120.547 30.967 120.697 34.117H117.838C117.687 32.317 116.182 31.117 113.925 31.117C111.667 31.117 110.162 32.317 110.162 33.967C110.162 35.317 111.216 36.067 113.624 36.667L115.731 37.117C119.493 38.017 121.149 39.517 121.149 42.217C121.149 45.667 118.44 47.917 113.925 47.917C109.711 47.917 107.002 45.817 106.851 42.367H109.41Z" fill="white"/>
<path d="M126.868 30.8169V33.9669H129.426V36.2169H126.868V43.7169C126.868 44.9169 127.319 45.3669 128.523 45.3669C128.824 45.3669 129.276 45.3669 129.426 45.3669V47.6169C129.125 47.7669 128.523 47.7669 127.921 47.7669C125.212 47.7669 124.159 46.7169 124.159 44.1669V36.3669H122.202V34.1169H124.159V30.9669H126.868V30.8169Z" fill="white"/>
<path d="M131.082 40.867C131.082 36.667 133.64 33.967 137.553 33.967C141.466 33.967 144.025 36.667 144.025 40.867C144.025 45.217 141.466 47.767 137.553 47.767C133.49 47.767 131.082 45.067 131.082 40.867ZM141.165 40.867C141.165 37.867 139.811 36.217 137.553 36.217C135.296 36.217 133.941 37.867 133.941 40.867C133.941 43.867 135.296 45.517 137.553 45.517C139.811 45.517 141.165 43.717 141.165 40.867Z" fill="white"/>
<path d="M146.282 33.967H148.992V36.367C149.443 34.867 150.647 33.967 152.303 33.967C152.754 33.967 153.055 33.967 153.206 34.117V36.667C153.055 36.517 152.453 36.517 152.002 36.517C150.196 36.517 149.142 37.717 149.142 39.667V47.767H146.282V33.967Z" fill="white"/>
<path d="M166.149 43.5669C165.697 45.9669 163.289 47.7669 160.279 47.7669C156.366 47.7669 153.808 45.0669 153.808 40.8669C153.808 36.6669 156.216 33.8169 160.129 33.8169C163.891 33.8169 166.299 36.3669 166.299 40.5669V41.4669H156.667V41.6169C156.667 43.8669 158.172 45.5169 160.279 45.5169C161.784 45.5169 162.988 44.7669 163.44 43.5669H166.149ZM156.667 39.5169H163.44C163.44 37.4169 162.085 36.0669 160.129 36.0669C158.172 36.0669 156.818 37.5669 156.667 39.5169Z" fill="white"/>
<path d="M58.3897 14.917C61.0987 14.917 62.6037 16.567 62.6037 19.417C62.6037 22.267 61.0987 23.917 58.3897 23.917H55.0786V14.917H58.3897ZM56.5836 22.717H58.2392C60.0452 22.717 61.2492 21.517 61.2492 19.567C61.2492 17.617 60.1957 16.417 58.2392 16.417H56.5836V22.717Z" fill="white"/>
<path d="M64.2593 20.4676C64.2593 18.2176 65.4633 17.0176 67.4198 17.0176C69.3763 17.0176 70.5803 18.3676 70.5803 20.4676C70.5803 22.7176 69.3763 23.9176 67.4198 23.9176C65.4633 24.0676 64.2593 22.7176 64.2593 20.4676ZM69.2258 20.4676C69.2258 18.9676 68.6238 18.2176 67.4198 18.2176C66.2158 18.2176 65.6138 19.1176 65.6138 20.4676C65.6138 21.9676 66.2158 22.8676 67.4198 22.8676C68.6238 22.8676 69.2258 21.9676 69.2258 20.4676Z" fill="white"/>
<path d="M79.1588 23.917H77.8042L76.4497 18.967H76.2992L74.9447 23.917H73.5902L71.7842 17.167H73.1387L74.3427 22.267H74.4932L75.8477 17.167H77.2022L78.5568 22.267H78.7073L79.9113 17.167H81.2658L79.1588 23.917Z" fill="white"/>
<path d="M82.6204 17.1676H83.9749V18.2176H84.1254C84.4264 17.4676 85.1789 17.0176 86.0819 17.0176C87.5869 17.0176 88.4899 17.9176 88.4899 19.5676V23.9176H87.1354V19.8676C87.1354 18.8176 86.6839 18.2176 85.6304 18.2176C84.5769 18.2176 83.9749 18.8176 83.9749 19.8676V23.7676H82.6204V17.1676Z" fill="white"/>
<path d="M90.4465 14.4673H91.8011V23.9173H90.4465V14.4673Z" fill="white"/>
<path d="M93.6069 20.4676C93.6069 18.2176 94.8109 17.0176 96.7675 17.0176C98.724 17.0176 99.928 18.3676 99.928 20.4676C99.928 22.7176 98.724 23.9176 96.7675 23.9176C94.8109 24.0676 93.6069 22.7176 93.6069 20.4676ZM98.724 20.4676C98.724 18.9676 98.122 18.2176 96.918 18.2176C95.714 18.2176 95.112 19.1176 95.112 20.4676C95.112 21.9676 95.714 22.8676 96.918 22.8676C97.9715 22.8676 98.724 21.9676 98.724 20.4676Z" fill="white"/>
<path d="M101.433 21.9676C101.433 20.7676 102.336 20.0176 103.992 20.0176L105.798 19.8676V19.2676C105.798 18.5176 105.346 18.2176 104.443 18.2176C103.691 18.2176 103.239 18.5176 103.089 18.9676H101.734C101.885 17.7676 102.938 17.0176 104.443 17.0176C106.099 17.0176 107.152 17.9176 107.152 19.2676V23.9176H105.798V23.0176H105.647C105.196 23.7676 104.443 24.0676 103.54 24.0676C102.336 24.0676 101.433 23.1676 101.433 21.9676ZM105.798 21.3676V20.7676L104.142 20.9176C103.239 20.9176 102.788 21.3676 102.788 21.8176C102.788 22.4176 103.39 22.7176 103.992 22.7176C105.045 22.8676 105.798 22.2676 105.798 21.3676Z" fill="white"/>
<path d="M108.808 20.4673C108.808 18.3673 109.861 17.0173 111.667 17.0173C112.57 17.0173 113.323 17.4673 113.774 18.2173H113.925V14.4673H115.279V23.9173H113.925V22.8673H113.774C113.323 23.6173 112.57 24.0673 111.667 24.0673C110.012 24.0673 108.808 22.7173 108.808 20.4673ZM110.313 20.4673C110.313 21.9673 111.065 22.7173 112.119 22.7173C113.172 22.7173 113.925 21.8173 113.925 20.4673C113.925 19.1173 113.172 18.2173 112.119 18.2173C110.915 18.2173 110.313 19.1173 110.313 20.4673Z" fill="white"/>
<path d="M120.697 20.4676C120.697 18.2176 121.901 17.0176 123.858 17.0176C125.814 17.0176 127.018 18.3676 127.018 20.4676C127.018 22.7176 125.814 23.9176 123.858 23.9176C121.901 24.0676 120.697 22.7176 120.697 20.4676ZM125.814 20.4676C125.814 18.9676 125.212 18.2176 124.008 18.2176C122.804 18.2176 122.202 19.1176 122.202 20.4676C122.202 21.9676 122.804 22.8676 124.008 22.8676C125.062 22.8676 125.814 21.9676 125.814 20.4676Z" fill="white"/>
<path d="M128.975 17.1676H130.329V18.2176H130.48C130.781 17.4676 131.533 17.0176 132.436 17.0176C133.941 17.0176 134.844 17.9176 134.844 19.5676V23.9176H133.49V19.8676C133.49 18.8176 133.038 18.2176 131.985 18.2176C130.931 18.2176 130.329 18.8176 130.329 19.8676V23.7676H128.975V17.1676Z" fill="white"/>
<path d="M142.219 15.5176V17.1676H143.724V18.3676H142.219V21.8176C142.219 22.5676 142.52 22.8676 143.122 22.8676C143.272 22.8676 143.423 22.8676 143.573 22.8676V23.9176C143.423 23.9176 143.122 23.9176 142.821 23.9176C141.316 23.9176 140.714 23.4676 140.714 22.1176V18.3676H139.66V17.3176H140.714V15.5176H142.219Z" fill="white"/>
<path d="M145.53 14.4673H146.885V18.2173H147.035C147.336 17.4673 148.089 17.0173 149.142 17.0173C150.647 17.0173 151.55 17.9173 151.55 19.5673V23.9173H150.196V19.8673C150.196 18.8173 149.744 18.2173 148.691 18.2173C147.637 18.2173 147.035 18.9673 147.035 19.8673V23.7673H145.681V14.4673H145.53Z" fill="white"/>
<path d="M159.226 22.1176C158.925 23.3176 157.871 24.0676 156.216 24.0676C154.259 24.0676 153.055 22.7176 153.055 20.6176C153.055 18.5176 154.259 17.0176 156.216 17.0176C158.172 17.0176 159.226 18.3676 159.226 20.4676V20.9176H154.41C154.41 22.1176 155.162 22.8676 156.216 22.8676C156.968 22.8676 157.57 22.5676 157.871 22.1176H159.226ZM154.41 19.8676H157.871C157.871 18.8176 157.119 18.0676 156.216 18.0676C155.162 18.2176 154.56 18.8176 154.41 19.8676Z" fill="white"/>
</svg>
