<svg width="205" height="63" viewBox="0 0 205 63" fill="none" xmlns="http://www.w3.org/2000/svg">
<rect x="0.5" y="1.37207" width="203.5" height="61" rx="6.5" fill="black" stroke="#A6A6A6"/>
<path d="M72.1001 17.169C72.1001 18.369 71.8001 19.419 71.0501 20.169C70.1501 21.069 69.1001 21.519 67.7501 21.519C66.4001 21.519 65.3501 21.069 64.4501 20.169C63.5501 19.269 63.1001 18.219 63.1001 16.869C63.1001 15.519 63.5501 14.469 64.4501 13.569C65.3501 12.669 66.4001 12.219 67.7501 12.219C68.3501 12.219 68.9501 12.369 69.5501 12.669C70.1501 12.969 70.6001 13.269 70.9001 13.719L70.1501 14.469C69.5501 13.719 68.8001 13.419 67.7501 13.419C66.8501 13.419 65.9501 13.719 65.3501 14.469C64.6001 15.069 64.3001 15.969 64.3001 17.019C64.3001 18.069 64.6001 18.969 65.3501 19.569C66.1001 20.169 66.8501 20.619 67.7501 20.619C68.8001 20.619 69.5501 20.319 70.3001 19.569C70.7501 19.119 71.0501 18.519 71.0501 17.769H67.7501V16.719H72.1001C72.1001 16.719 72.1001 17.019 72.1001 17.169Z" fill="white" stroke="white" stroke-width="0.2" stroke-miterlimit="10"/>
<path d="M79 13.4194H74.95V16.2694H78.7V17.3194H74.95V20.1694H79V21.3694H73.75V12.3694H79V13.4194Z" fill="white" stroke="white" stroke-width="0.2" stroke-miterlimit="10"/>
<path d="M83.9502 21.3694H82.7502V13.4194H80.2002V12.3694H86.5002V13.4194H83.9502V21.3694Z" fill="white" stroke="white" stroke-width="0.2" stroke-miterlimit="10"/>
<path d="M90.8501 21.3694V12.3694H92.0501V21.3694H90.8501Z" fill="white" stroke="white" stroke-width="0.2" stroke-miterlimit="10"/>
<path d="M97.1501 21.3694H95.9502V13.4194H93.4001V12.3694H99.5501V13.4194H97.0001V21.3694H97.1501Z" fill="white" stroke="white" stroke-width="0.2" stroke-miterlimit="10"/>
<path d="M111.4 20.1692C110.5 21.0692 109.45 21.5192 108.1 21.5192C106.75 21.5192 105.7 21.0692 104.8 20.1692C103.9 19.2692 103.45 18.2192 103.45 16.8692C103.45 15.5192 103.9 14.4692 104.8 13.5692C105.7 12.6692 106.75 12.2192 108.1 12.2192C109.45 12.2192 110.5 12.6692 111.4 13.5692C112.3 14.4692 112.75 15.5192 112.75 16.8692C112.75 18.2192 112.3 19.2692 111.4 20.1692ZM105.7 19.4192C106.3 20.0192 107.2 20.4692 108.1 20.4692C109 20.4692 109.9 20.1692 110.5 19.4192C111.1 18.8192 111.55 17.9192 111.55 16.8692C111.55 15.8192 111.25 14.9192 110.5 14.3192C109.9 13.7192 109 13.2692 108.1 13.2692C107.2 13.2692 106.3 13.5692 105.7 14.3192C105.1 14.9192 104.65 15.8192 104.65 16.8692C104.65 17.9192 104.95 18.8192 105.7 19.4192Z" fill="white" stroke="white" stroke-width="0.2" stroke-miterlimit="10"/>
<path d="M114.4 21.3694V12.3694H115.75L120.1 19.4194V17.6194V12.3694H121.3V21.3694H120.1L115.45 14.0194V15.8194V21.3694H114.4Z" fill="white" stroke="white" stroke-width="0.2" stroke-miterlimit="10"/>
<path d="M103.15 34.5693C99.5499 34.5693 96.6999 37.2693 96.6999 41.0193C96.6999 44.6193 99.5499 47.4693 103.15 47.4693C106.75 47.4693 109.6 44.7693 109.6 41.0193C109.6 37.1193 106.75 34.5693 103.15 34.5693ZM103.15 44.7693C101.2 44.7693 99.5499 43.1193 99.5499 40.8693C99.5499 38.6193 101.2 36.9693 103.15 36.9693C105.1 36.9693 106.75 38.4693 106.75 40.8693C106.75 43.1193 105.1 44.7693 103.15 44.7693ZM89.1999 34.5693C85.5999 34.5693 82.7499 37.2693 82.7499 41.0193C82.7499 44.6193 85.5999 47.4693 89.1999 47.4693C92.7999 47.4693 95.6499 44.7693 95.6499 41.0193C95.6499 37.1193 92.7999 34.5693 89.1999 34.5693ZM89.1999 44.7693C87.2499 44.7693 85.5999 43.1193 85.5999 40.8693C85.5999 38.6193 87.2499 36.9693 89.1999 36.9693C91.1499 36.9693 92.7999 38.4693 92.7999 40.8693C92.7999 43.1193 91.1499 44.7693 89.1999 44.7693ZM72.5499 36.5193V39.2193H78.9999C78.8499 40.7193 78.2499 41.9193 77.4999 42.6693C76.5999 43.5693 75.0999 44.6193 72.5499 44.6193C68.4999 44.6193 65.4999 41.4693 65.4999 37.4193C65.4999 33.3693 68.6499 30.2193 72.5499 30.2193C74.6499 30.2193 76.2999 31.1193 77.4999 32.1693L79.4499 30.2193C77.7999 28.7193 75.6999 27.5193 72.6999 27.5193C67.2999 27.5193 62.6499 32.0193 62.6499 37.4193C62.6499 42.8193 67.2999 47.3193 72.6999 47.3193C75.6999 47.3193 77.7999 46.4193 79.5999 44.4693C81.3999 42.6693 81.9999 40.1193 81.9999 38.1693C81.9999 37.5693 81.9999 36.9693 81.8499 36.5193H72.5499ZM140.65 38.6193C140.05 37.1193 138.55 34.5693 135.25 34.5693C131.95 34.5693 129.25 37.1193 129.25 41.0193C129.25 44.6193 131.95 47.4693 135.55 47.4693C138.4 47.4693 140.2 45.6693 140.8 44.6193L138.7 43.1193C137.95 44.1693 137.05 44.9193 135.55 44.9193C134.05 44.9193 133.15 44.3193 132.4 42.9693L140.95 39.3693L140.65 38.6193ZM131.95 40.7193C131.95 38.3193 133.9 36.9693 135.25 36.9693C136.3 36.9693 137.35 37.5693 137.65 38.3193L131.95 40.7193ZM124.9 46.8693H127.75V28.1193H124.9V46.8693ZM120.4 35.9193C119.65 35.1693 118.45 34.4193 116.95 34.4193C113.8 34.4193 110.8 37.2693 110.8 40.8693C110.8 44.4693 113.65 47.1693 116.95 47.1693C118.45 47.1693 119.65 46.4193 120.25 45.6693H120.4V46.5693C120.4 48.9693 119.05 50.3193 116.95 50.3193C115.3 50.3193 114.1 49.1193 113.8 48.0693L111.4 49.1193C112.15 50.7693 113.95 52.8693 117.1 52.8693C120.4 52.8693 123.1 50.9193 123.1 46.2693V34.8693H120.4V35.9193ZM117.1 44.7693C115.15 44.7693 113.5 43.1193 113.5 40.8693C113.5 38.6193 115.15 36.9693 117.1 36.9693C119.05 36.9693 120.55 38.6193 120.55 40.8693C120.55 43.1193 119.05 44.7693 117.1 44.7693ZM153.7 28.1193H146.95V46.8693H149.8V39.8193H153.7C156.85 39.8193 159.85 37.5693 159.85 33.9693C159.85 30.3693 156.85 28.1193 153.7 28.1193ZM153.85 37.1193H149.8V30.6693H153.85C155.95 30.6693 157.15 32.4693 157.15 33.8193C157 35.4693 155.8 37.1193 153.85 37.1193ZM171.1 34.4193C169 34.4193 166.9 35.3193 166.15 37.2693L168.7 38.3193C169.3 37.2693 170.2 36.9693 171.25 36.9693C172.75 36.9693 174.1 37.8693 174.25 39.3693V39.5193C173.8 39.2193 172.6 38.7693 171.4 38.7693C168.7 38.7693 166 40.2693 166 42.9693C166 45.5193 168.25 47.1693 170.65 47.1693C172.6 47.1693 173.5 46.2693 174.25 45.3693H174.4V46.8693H177.1V39.6693C176.8 36.3693 174.25 34.4193 171.1 34.4193ZM170.8 44.7693C169.9 44.7693 168.55 44.3193 168.55 43.1193C168.55 41.6193 170.2 41.1693 171.55 41.1693C172.75 41.1693 173.35 41.4693 174.1 41.7693C173.8 43.5693 172.3 44.7693 170.8 44.7693ZM186.55 34.8693L183.4 42.9693H183.25L179.95 34.8693H176.95L181.9 46.2693L179.05 52.5693H181.9L189.55 34.8693H186.55ZM161.35 46.8693H164.2V28.1193H161.35V46.8693Z" fill="white"/>
<path d="M16.6001 13.1194C16.1501 13.5694 15.8501 14.3194 15.8501 15.2194V48.3694C15.8501 49.2694 16.1501 50.0194 16.6001 50.4694L16.7501 50.6194L35.3501 32.0194V31.8694V31.7194L16.6001 13.1194Z" fill="url(#paint0_linear)"/>
<path d="M41.5001 38.3191L35.3501 32.1691V31.8691V31.7191L41.5001 25.5691L41.6501 25.7191L49.0001 29.9191C51.1001 31.1191 51.1001 33.0691 49.0001 34.2691L41.5001 38.3191Z" fill="url(#paint1_linear)"/>
<path d="M41.6501 38.1694L35.3501 31.8694L16.6001 50.6194C17.3501 51.3694 18.4001 51.3694 19.7501 50.7694L41.6501 38.1694Z" fill="url(#paint2_linear)"/>
<path d="M41.6501 25.5696L19.7501 13.1196C18.4001 12.3696 17.3501 12.5196 16.6001 13.2696L35.3501 31.8696L41.6501 25.5696Z" fill="url(#paint3_linear)"/>
<path opacity="0.2" d="M41.5001 38.0193L19.7501 50.3193C18.5501 51.0693 17.5001 50.9193 16.7501 50.3193L16.6001 50.4693L16.7501 50.6193C17.5001 51.2193 18.5501 51.3693 19.7501 50.6193L41.5001 38.0193Z" fill="black"/>
<path opacity="0.12" d="M16.6 50.319C16.15 49.869 16 49.119 16 48.219V48.369C16 49.269 16.3 50.019 16.75 50.469V50.319H16.6Z" fill="black"/>
<path opacity="0.12" d="M49 33.8194L41.5 38.0194L41.65 38.1694L49 33.9694C50.05 33.3694 50.5 32.6194 50.5 31.8694C50.5 32.6194 49.9 33.2194 49 33.8194Z" fill="black"/>
<path opacity="0.25" d="M19.75 13.2692L49 29.9192C49.9 30.5192 50.5 31.1192 50.5 31.8692C50.5 31.1192 50.05 30.3692 49 29.7692L19.75 13.1192C17.65 11.9192 16 12.9692 16 15.3692V15.5192C16 13.1192 17.65 12.0692 19.75 13.2692Z" fill="white"/>
<defs>
<linearGradient id="paint0_linear" x1="33.6996" y1="14.9339" x2="8.52605" y2="40.1075" gradientUnits="userSpaceOnUse">
<stop stop-color="#00A0FF"/>
<stop offset="0.00657445" stop-color="#00A1FF"/>
<stop offset="0.2601" stop-color="#00BEFF"/>
<stop offset="0.5122" stop-color="#00D2FF"/>
<stop offset="0.7604" stop-color="#00DFFF"/>
<stop offset="1" stop-color="#00E3FF"/>
</linearGradient>
<linearGradient id="paint1_linear" x1="51.7517" y1="31.8712" x2="15.4564" y2="31.8712" gradientUnits="userSpaceOnUse">
<stop stop-color="#FFE000"/>
<stop offset="0.4087" stop-color="#FFBD00"/>
<stop offset="0.7754" stop-color="#FFA500"/>
<stop offset="1" stop-color="#FF9C00"/>
</linearGradient>
<linearGradient id="paint2_linear" x1="38.2406" y1="35.3135" x2="4.10315" y2="69.451" gradientUnits="userSpaceOnUse">
<stop stop-color="#FF3A44"/>
<stop offset="1" stop-color="#C31162"/>
</linearGradient>
<linearGradient id="paint3_linear" x1="11.946" y1="2.13385" x2="27.1899" y2="17.3776" gradientUnits="userSpaceOnUse">
<stop stop-color="#32A071"/>
<stop offset="0.0685" stop-color="#2DA771"/>
<stop offset="0.4762" stop-color="#15CF74"/>
<stop offset="0.8009" stop-color="#06E775"/>
<stop offset="1" stop-color="#00F076"/>
</linearGradient>
</defs>
</svg>
